<svg xmlns="http://www.w3.org/2000/svg" xmlns:xlink="http://www.w3.org/1999/xlink" width="500" zoomAndPan="magnify" viewBox="0 0 375 374.999991" height="500" preserveAspectRatio="xMidYMid meet" version="1.0"><defs><clipPath id="ff45fbde87"><path d="M 6.84375 6.039062 L 368.15625 6.039062 L 368.15625 369 L 6.84375 369 Z M 6.84375 6.039062 " clip-rule="nonzero"/></clipPath><clipPath id="b92ca88b2f"><path d="M 81.84375 6.039062 L 293.15625 6.039062 C 313.046875 6.039062 332.125 13.941406 346.1875 28.007812 C 360.253906 42.070312 368.15625 61.148438 368.15625 81.039062 L 368.15625 293.960938 C 368.15625 313.851562 360.253906 332.929688 346.1875 346.992188 C 332.125 361.058594 313.046875 368.960938 293.15625 368.960938 L 81.84375 368.960938 C 61.953125 368.960938 42.875 361.058594 28.8125 346.992188 C 14.746094 332.929688 6.84375 313.851562 6.84375 293.960938 L 6.84375 81.039062 C 6.84375 61.148438 14.746094 42.070312 28.8125 28.007812 C 42.875 13.941406 61.953125 6.039062 81.84375 6.039062 Z M 81.84375 6.039062 " clip-rule="nonzero"/></clipPath><clipPath id="8e21bc63f3"><path d="M 75.726562 83 L 290 83 L 290 297.625 L 75.726562 297.625 Z M 75.726562 83 " clip-rule="nonzero"/></clipPath><clipPath id="89f7ef2780"><path d="M 251 77.125 L 299.226562 77.125 L 299.226562 285 L 251 285 Z M 251 77.125 " clip-rule="nonzero"/></clipPath></defs><g clip-path="url(#ff45fbde87)"><g clip-path="url(#b92ca88b2f)"><path fill="#050a30" d="M 6.84375 6.039062 L 368.15625 6.039062 L 368.15625 368.761719 L 6.84375 368.761719 Z M 6.84375 6.039062 " fill-opacity="1" fill-rule="nonzero"/></g></g><g clip-path="url(#8e21bc63f3)"><path fill="#5e17eb" d="M 194.164062 250.246094 L 153.992188 250.246094 L 182.859375 190.132812 L 226.3125 277.324219 C 232.855469 289.523438 249.230469 297.863281 265.59375 297.863281 L 290 297.863281 L 286.398438 290.667969 L 238.78125 195.441406 L 182.859375 83.589844 L 75.726562 297.855469 L 146.554688 297.855469 C 172.742188 297.855469 194.164062 276.433594 194.164062 250.246094 Z M 194.164062 250.246094 " fill-opacity="1" fill-rule="nonzero"/></g><g clip-path="url(#89f7ef2780)"><path fill="#5e17eb" d="M 251.644531 77.15625 L 251.644531 189 L 299.261719 284.226562 L 299.261719 124.765625 C 299.261719 98.582031 277.828125 77.15625 251.644531 77.15625 Z M 251.644531 77.15625 " fill-opacity="1" fill-rule="nonzero"/></g></svg>